<svg width="153" height="38" viewBox="0 0 153 38" fill="none" xmlns="http://www.w3.org/2000/svg">
<path d="M10.6969 29.2C10.5262 29.264 10.2595 29.3813 9.89688 29.552C9.53421 29.7227 9.09688 29.872 8.58488 30C8.07288 30.128 7.51821 30.192 6.92088 30.192C6.30221 30.192 5.71554 30.0747 5.16088 29.84C4.62754 29.6053 4.20088 29.2533 3.88088 28.784C3.56088 28.2933 3.40088 27.696 3.40088 26.992V15.056H1.09688V13.328H3.40088V7.696H5.57688V13.328H9.41688V15.056H5.57688V26.384C5.61954 26.9813 5.83288 27.4293 6.21688 27.728C6.62221 28.0267 7.08088 28.176 7.59288 28.176C8.19021 28.176 8.73421 28.08 9.22488 27.888C9.71554 27.6747 10.0142 27.5253 10.1209 27.44L10.6969 29.2ZM22.9516 16.944C21.6503 16.944 20.4876 17.2 19.4636 17.712C18.4396 18.2027 17.7036 18.9173 17.2556 19.856V30H12.9676V13.232H16.9036V16.816C17.501 15.664 18.2583 14.7573 19.1756 14.096C20.093 13.4347 21.0636 13.072 22.0876 13.008C22.3223 13.008 22.5036 13.008 22.6316 13.008C22.7596 13.008 22.8663 13.0187 22.9516 13.04V16.944ZM25.1826 23.728V13.232H29.4706V22.8C29.4706 24.08 29.7053 25.0507 30.1746 25.712C30.644 26.352 31.3373 26.672 32.2546 26.672C32.8093 26.672 33.3533 26.5653 33.8866 26.352C34.4413 26.1173 34.9426 25.776 35.3906 25.328C35.86 24.88 36.2546 24.3147 36.5746 23.632V13.232H40.8626V25.2C40.8626 25.648 40.9373 25.968 41.0866 26.16C41.2573 26.352 41.524 26.4693 41.8866 26.512V30C41.46 30.064 41.0973 30.1067 40.7986 30.128C40.5213 30.1707 40.2653 30.192 40.0306 30.192C39.2626 30.192 38.6333 30.0213 38.1426 29.68C37.6733 29.3173 37.396 28.8267 37.3106 28.208L37.2146 26.864C36.468 27.9947 35.508 28.8587 34.3346 29.456C33.1613 30.032 31.8706 30.32 30.4626 30.32C28.7346 30.32 27.4226 29.7653 26.5266 28.656C25.6306 27.5253 25.1826 25.8827 25.1826 23.728ZM60.7079 30H56.4199V20.592C56.4199 19.248 56.1852 18.2667 55.7159 17.648C55.2465 17.0293 54.5959 16.72 53.7639 16.72C53.1879 16.72 52.6012 16.8693 52.0039 17.168C51.4279 17.4667 50.9052 17.8827 50.4359 18.416C49.9665 18.928 49.6252 19.5253 49.4119 20.208V30H45.1239V13.232H48.9959V16.336C49.4225 15.6107 49.9665 15.0027 50.6279 14.512C51.2892 14 52.0465 13.616 52.8999 13.36C53.7745 13.0827 54.6919 12.944 55.6519 12.944C56.6972 12.944 57.5505 13.136 58.2119 13.52C58.8945 13.8827 59.4065 14.384 59.7479 15.024C60.1105 15.6427 60.3559 16.3467 60.4839 17.136C60.6332 17.9253 60.7079 18.7253 60.7079 19.536V30ZM70.3564 30.32C68.991 30.32 67.7217 30.096 66.5484 29.648C65.375 29.2 64.3617 28.5173 63.5084 27.6L64.4044 26.064C65.343 26.9387 66.2817 27.5787 67.2204 27.984C68.1804 28.368 69.1937 28.56 70.2604 28.56C71.5617 28.56 72.6177 28.304 73.4284 27.792C74.239 27.2587 74.6444 26.5013 74.6444 25.52C74.6444 24.8587 74.4417 24.3573 74.0364 24.016C73.6524 23.6533 73.087 23.3653 72.3404 23.152C71.615 22.9173 70.7404 22.672 69.7164 22.416C68.5644 22.096 67.5937 21.7653 66.8044 21.424C66.0364 21.0613 65.4497 20.6133 65.0444 20.08C64.6604 19.5253 64.4684 18.8107 64.4684 17.936C64.4684 16.848 64.735 15.952 65.2684 15.248C65.823 14.5227 66.5697 13.9787 67.5084 13.616C68.4684 13.232 69.535 13.04 70.7084 13.04C71.9884 13.04 73.119 13.2427 74.1004 13.648C75.0817 14.0533 75.8817 14.6187 76.5004 15.344L75.4444 16.816C74.847 16.1333 74.1324 15.632 73.3004 15.312C72.4897 14.9707 71.583 14.8 70.5804 14.8C69.8977 14.8 69.247 14.896 68.6284 15.088C68.0097 15.2587 67.4977 15.5573 67.0924 15.984C66.7084 16.3893 66.5164 16.9547 66.5164 17.68C66.5164 18.2773 66.6657 18.7467 66.9644 19.088C67.263 19.408 67.711 19.6853 68.3084 19.92C68.9057 20.1333 69.6417 20.368 70.5164 20.624C71.775 20.9653 72.8737 21.3173 73.8124 21.68C74.751 22.0213 75.4764 22.4693 75.9884 23.024C76.5004 23.5787 76.7564 24.3573 76.7564 25.36C76.7564 26.9173 76.1697 28.1333 74.9964 29.008C73.823 29.8827 72.2764 30.32 70.3564 30.32ZM87.5851 30.32C86.3691 30.32 85.2491 30.096 84.2251 29.648C83.2225 29.1787 82.3371 28.5387 81.5691 27.728C80.8225 26.9173 80.2358 25.9893 79.8091 24.944C79.4038 23.8987 79.2011 22.7893 79.2011 21.616C79.2011 20.0373 79.5531 18.5973 80.2571 17.296C80.9611 15.9947 81.9425 14.96 83.2011 14.192C84.4598 13.424 85.9105 13.04 87.5531 13.04C89.1105 13.04 90.4865 13.4027 91.6811 14.128C92.8758 14.832 93.7611 15.792 94.3371 17.008L92.2251 17.68C91.7558 16.8267 91.0945 16.1653 90.2411 15.696C89.4091 15.2053 88.4811 14.96 87.4571 14.96C86.3478 14.96 85.3345 15.248 84.4171 15.824C83.4998 16.4 82.7638 17.1893 82.2091 18.192C81.6758 19.1947 81.4091 20.336 81.4091 21.616C81.4091 22.8747 81.6865 24.016 82.2411 25.04C82.7958 26.064 83.5318 26.8853 84.4491 27.504C85.3665 28.1013 86.3798 28.4 87.4891 28.4C88.2145 28.4 88.9078 28.272 89.5691 28.016C90.2518 27.76 90.8385 27.4187 91.3291 26.992C91.8411 26.544 92.1825 26.064 92.3531 25.552L94.4971 26.192C94.1985 26.9813 93.6971 27.696 92.9931 28.336C92.3105 28.9547 91.4998 29.4453 90.5611 29.808C89.6438 30.1493 88.6518 30.32 87.5851 30.32ZM104.959 30.32C103.765 30.32 102.655 30.096 101.631 29.648C100.607 29.1787 99.722 28.5493 98.9754 27.76C98.2287 26.9493 97.642 26.0213 97.2154 24.976C96.81 23.9307 96.6074 22.8107 96.6074 21.616C96.6074 20.0587 96.9594 18.6293 97.6634 17.328C98.3887 16.0267 99.3807 14.992 100.639 14.224C101.898 13.4347 103.327 13.04 104.927 13.04C106.57 13.04 107.999 13.4347 109.215 14.224C110.453 15.0133 111.423 16.0587 112.127 17.36C112.831 18.64 113.183 20.048 113.183 21.584C113.183 21.7547 113.183 21.9253 113.183 22.096C113.183 22.2453 113.173 22.3627 113.151 22.448H98.8794C98.986 23.6427 99.3167 24.7093 99.8714 25.648C100.447 26.5653 101.183 27.3013 102.079 27.856C102.997 28.3893 103.989 28.656 105.055 28.656C106.143 28.656 107.167 28.3787 108.127 27.824C109.109 27.2693 109.791 26.544 110.175 25.648L112.063 26.16C111.722 26.9493 111.199 27.664 110.495 28.304C109.791 28.944 108.959 29.4453 107.999 29.808C107.061 30.1493 106.047 30.32 104.959 30.32ZM98.8154 20.88H111.135C111.05 19.664 110.719 18.5973 110.143 17.68C109.589 16.7627 108.853 16.048 107.935 15.536C107.039 15.0027 106.047 14.736 104.959 14.736C103.871 14.736 102.879 15.0027 101.983 15.536C101.087 16.048 100.351 16.7733 99.7754 17.712C99.2207 18.6293 98.9007 19.6853 98.8154 20.88ZM130.557 30H128.381V20.688C128.381 18.7253 128.093 17.296 127.517 16.4C126.941 15.4827 126.034 15.024 124.797 15.024C123.943 15.024 123.101 15.2373 122.269 15.664C121.437 16.0693 120.701 16.6347 120.061 17.36C119.442 18.064 118.994 18.8747 118.717 19.792V30H116.541V13.328H118.525V17.104C118.973 16.2933 119.559 15.5893 120.285 14.992C121.01 14.3733 121.831 13.8933 122.749 13.552C123.666 13.2107 124.615 13.04 125.597 13.04C126.514 13.04 127.293 13.2107 127.933 13.552C128.573 13.8933 129.085 14.384 129.469 15.024C129.853 15.6427 130.13 16.4 130.301 17.296C130.471 18.1707 130.557 19.152 130.557 20.24V30ZM134.077 21.712C134.077 20.1333 134.397 18.6933 135.037 17.392C135.698 16.0693 136.605 15.0133 137.757 14.224C138.909 13.4347 140.221 13.04 141.693 13.04C143.08 13.04 144.317 13.4133 145.405 14.16C146.514 14.8853 147.378 15.7707 147.997 16.816V6.64H150.173V27.376C150.173 27.6747 150.237 27.8987 150.365 28.048C150.493 28.176 150.685 28.2507 150.941 28.272V30C150.514 30.064 150.184 30.0853 149.949 30.064C149.501 30.0427 149.106 29.8613 148.765 29.52C148.424 29.1787 148.253 28.8053 148.253 28.4V26.768C147.592 27.856 146.696 28.72 145.565 29.36C144.434 30 143.261 30.32 142.045 30.32C140.893 30.32 139.826 30.0853 138.845 29.616C137.885 29.1467 137.042 28.5067 136.317 27.696C135.613 26.8853 135.058 25.968 134.653 24.944C134.269 23.8987 134.077 22.8213 134.077 21.712ZM147.997 24.272V19.12C147.72 18.352 147.272 17.6587 146.653 17.04C146.034 16.4 145.33 15.8987 144.541 15.536C143.773 15.152 143.005 14.96 142.237 14.96C141.341 14.96 140.53 15.152 139.805 15.536C139.08 15.8987 138.45 16.4 137.917 17.04C137.405 17.68 137.01 18.4053 136.733 19.216C136.456 20.0267 136.317 20.8587 136.317 21.712C136.317 22.608 136.466 23.4613 136.765 24.272C137.085 25.0827 137.533 25.808 138.109 26.448C138.685 27.0667 139.346 27.5467 140.093 27.888C140.84 28.2293 141.65 28.4 142.525 28.4C143.08 28.4 143.656 28.2933 144.253 28.08C144.85 27.8667 145.416 27.5787 145.949 27.216C146.504 26.832 146.962 26.384 147.325 25.872C147.688 25.36 147.912 24.8267 147.997 24.272Z" fill="black"/>
</svg>
